<svg width="512" height="512" viewBox="0 0 512 512" fill="none" xmlns="http://www.w3.org/2000/svg">
<path d="M75 362.14V149.86H130.054V190.386H144.998L128.088 215.088C128.088 192.187 133.463 174.947 144.211 163.368C154.96 151.789 170.69 146 191.401 146C215.258 146 233.74 153.076 246.849 167.228C260.219 181.38 266.904 201.322 266.904 227.053V244.421H203.985V230.912C203.985 219.333 200.708 210.327 194.154 203.895C187.862 197.462 179.341 194.246 168.593 194.246C157.32 194.246 148.668 197.462 142.638 203.895C136.871 210.327 133.987 219.333 133.987 230.912V362.14H75Z" fill="#FF7300"/>
<path d="M396.675 215.474C384.878 215.474 375.309 212.257 367.968 205.825C360.89 199.392 357.351 191.029 357.351 180.737C357.351 170.187 360.89 161.825 367.968 155.649C375.309 149.216 384.878 146 396.675 146C408.473 146 417.911 149.216 424.989 155.649C432.33 161.825 436 170.187 436 180.737C436 191.029 432.33 199.392 424.989 205.825C417.911 212.257 408.473 215.474 396.675 215.474ZM396.675 366C384.878 366 375.309 362.784 367.968 356.351C360.89 349.918 357.351 341.556 357.351 331.263C357.351 320.713 360.89 312.351 367.968 306.175C375.309 299.743 384.878 296.526 396.675 296.526C408.473 296.526 417.911 299.743 424.989 306.175C432.33 312.351 436 320.713 436 331.263C436 341.556 432.33 349.918 424.989 356.351C417.911 362.784 408.473 366 396.675 366Z" fill="#FF7300"/>
</svg>
