<svg width="305" height="76" viewBox="0 0 305 76" fill="none" xmlns="http://www.w3.org/2000/svg">
<path d="M0 74.6667V1.33333H18.6626V15.3333H23.7281L17.9961 23.8667C17.9961 15.9556 19.8179 10 23.4615 5.99999C27.1052 2 32.4374 0 39.458 0C47.5452 0 53.8105 2.44445 58.2539 7.33333C62.7863 12.2222 65.0525 19.1111 65.0525 28V34H43.7238V29.3333C43.7238 25.3333 42.6129 22.2222 40.3912 20C38.2583 17.7778 35.37 16.6667 31.7264 16.6667C27.905 16.6667 24.9723 17.7778 22.9283 20C20.9732 22.2222 19.9956 25.3333 19.9956 29.3333V74.6667H0Z" fill="#FF7300"/>
<path d="M109.043 24C105.044 24 101.8 22.8889 99.3116 20.6667C96.9121 18.4444 95.7124 15.5556 95.7124 12C95.7124 8.35555 96.9121 5.46666 99.3116 3.33333C101.8 1.11111 105.044 0 109.043 0C113.042 0 116.241 1.11111 118.641 3.33333C121.129 5.46666 122.373 8.35555 122.373 12C122.373 15.5556 121.129 18.4444 118.641 20.6667C116.241 22.8889 113.042 24 109.043 24ZM109.043 76C105.044 76 101.8 74.8889 99.3116 72.6667C96.9121 70.4444 95.7124 67.5556 95.7124 64C95.7124 60.3556 96.9121 57.4667 99.3116 55.3333C101.8 53.1111 105.044 52 109.043 52C113.042 52 116.241 53.1111 118.641 55.3333C121.129 57.4667 122.373 60.3556 122.373 64C122.373 67.5556 121.129 70.4444 118.641 72.6667C116.241 74.8889 113.042 76 109.043 76Z" fill="#FF7300"/>
<path d="M189.025 24C185.026 24 181.782 22.8889 179.294 20.6667C176.895 18.4444 175.695 15.5556 175.695 12C175.695 8.35555 176.895 5.46666 179.294 3.33333C181.782 1.11111 185.026 0 189.025 0C193.024 0 196.224 1.11111 198.623 3.33333C201.112 5.46666 202.356 8.35555 202.356 12C202.356 15.5556 201.112 18.4444 198.623 20.6667C196.224 22.8889 193.024 24 189.025 24ZM189.025 76C185.026 76 181.782 74.8889 179.294 72.6667C176.895 70.4444 175.695 67.5556 175.695 64C175.695 60.3556 176.895 57.4667 179.294 55.3333C181.782 53.1111 185.026 52 189.025 52C193.024 52 196.224 53.1111 198.623 55.3333C201.112 57.4667 202.356 60.3556 202.356 64C202.356 67.5556 201.112 70.4444 198.623 72.6667C196.224 74.8889 193.024 76 189.025 76Z" fill="white"/>
<path d="M239.948 74.6667V1.33333H258.61V15.3333H263.676L257.944 23.8667C257.944 15.9556 259.765 10 263.409 5.99999C267.053 2 272.385 0 279.406 0C287.493 0 293.758 2.44445 298.201 7.33333C302.734 12.2222 305 19.1111 305 28V34H283.671V29.3333C283.671 25.3333 282.56 22.2222 280.339 20C278.206 17.7778 275.318 16.6667 271.674 16.6667C267.853 16.6667 264.92 17.7778 262.876 20C260.921 22.2222 259.943 25.3333 259.943 29.3333V74.6667H239.948Z" fill="white"/>
</svg>
